<svg xmlns="http://www.w3.org/2000/svg" viewBox="0 0 1200 440" width="1200" height="440">
  <defs>
    <linearGradient id="bg" x1="0%" y1="0%" x2="100%" y2="100%">
      <stop offset="0%" style="stop-color:#0d1b4a"/>
      <stop offset="40%" style="stop-color:#1a2d6d"/>
      <stop offset="100%" style="stop-color:#1558b0"/>
    </linearGradient>
    <linearGradient id="accent" x1="0%" y1="0%" x2="100%" y2="0%">
      <stop offset="0%" style="stop-color:#4285F4"/>
      <stop offset="25%" style="stop-color:#34A853"/>
      <stop offset="50%" style="stop-color:#FBBC05"/>
      <stop offset="75%" style="stop-color:#EA4335"/>
      <stop offset="100%" style="stop-color:#4285F4"/>
    </linearGradient>
    <linearGradient id="pipelineBg" x1="0%" y1="0%" x2="100%" y2="0%">
      <stop offset="0%" style="stop-color:rgba(255,255,255,0.03)"/>
      <stop offset="50%" style="stop-color:rgba(255,255,255,0.07)"/>
      <stop offset="100%" style="stop-color:rgba(255,255,255,0.03)"/>
    </linearGradient>
    <filter id="shadow">
      <feDropShadow dx="0" dy="2" stdDeviation="4" flood-color="#000" flood-opacity="0.35"/>
    </filter>
    <filter id="iconGlow">
      <feDropShadow dx="0" dy="0" stdDeviation="6" flood-opacity="0.4"/>
    </filter>
    <!-- Arrow marker -->
    <marker id="arrowHead" markerWidth="8" markerHeight="6" refX="8" refY="3" orient="auto">
      <path d="M0,0 L8,3 L0,6" fill="rgba(255,255,255,0.5)"/>
    </marker>
  </defs>

  <!-- Background -->
  <rect width="1200" height="440" fill="url(#bg)" rx="12"/>

  <!-- Subtle dot grid -->
  <g opacity="0.04" fill="white">
    <circle cx="60" cy="40" r="1.5"/><circle cx="120" cy="40" r="1.5"/><circle cx="180" cy="40" r="1.5"/><circle cx="240" cy="40" r="1.5"/><circle cx="300" cy="40" r="1.5"/><circle cx="360" cy="40" r="1.5"/><circle cx="420" cy="40" r="1.5"/><circle cx="480" cy="40" r="1.5"/><circle cx="540" cy="40" r="1.5"/><circle cx="600" cy="40" r="1.5"/><circle cx="660" cy="40" r="1.5"/><circle cx="720" cy="40" r="1.5"/><circle cx="780" cy="40" r="1.5"/><circle cx="840" cy="40" r="1.5"/><circle cx="900" cy="40" r="1.5"/><circle cx="960" cy="40" r="1.5"/><circle cx="1020" cy="40" r="1.5"/><circle cx="1080" cy="40" r="1.5"/><circle cx="1140" cy="40" r="1.5"/>
    <circle cx="60" cy="100" r="1.5"/><circle cx="120" cy="100" r="1.5"/><circle cx="180" cy="100" r="1.5"/><circle cx="240" cy="100" r="1.5"/><circle cx="300" cy="100" r="1.5"/><circle cx="360" cy="100" r="1.5"/><circle cx="420" cy="100" r="1.5"/><circle cx="480" cy="100" r="1.5"/><circle cx="540" cy="100" r="1.5"/><circle cx="600" cy="100" r="1.5"/><circle cx="660" cy="100" r="1.5"/><circle cx="720" cy="100" r="1.5"/><circle cx="780" cy="100" r="1.5"/><circle cx="840" cy="100" r="1.5"/><circle cx="900" cy="100" r="1.5"/><circle cx="960" cy="100" r="1.5"/><circle cx="1020" cy="100" r="1.5"/><circle cx="1080" cy="100" r="1.5"/><circle cx="1140" cy="100" r="1.5"/>
    <circle cx="60" cy="160" r="1.5"/><circle cx="120" cy="160" r="1.5"/><circle cx="180" cy="160" r="1.5"/><circle cx="240" cy="160" r="1.5"/><circle cx="300" cy="160" r="1.5"/><circle cx="360" cy="160" r="1.5"/><circle cx="420" cy="160" r="1.5"/><circle cx="480" cy="160" r="1.5"/><circle cx="540" cy="160" r="1.5"/><circle cx="600" cy="160" r="1.5"/><circle cx="660" cy="160" r="1.5"/><circle cx="720" cy="160" r="1.5"/><circle cx="780" cy="160" r="1.5"/><circle cx="840" cy="160" r="1.5"/><circle cx="900" cy="160" r="1.5"/><circle cx="960" cy="160" r="1.5"/><circle cx="1020" cy="160" r="1.5"/><circle cx="1080" cy="160" r="1.5"/><circle cx="1140" cy="160" r="1.5"/>
    <circle cx="60" cy="220" r="1.5"/><circle cx="120" cy="220" r="1.5"/><circle cx="180" cy="220" r="1.5"/><circle cx="240" cy="220" r="1.5"/><circle cx="300" cy="220" r="1.5"/><circle cx="360" cy="220" r="1.5"/><circle cx="420" cy="220" r="1.5"/><circle cx="480" cy="220" r="1.5"/><circle cx="540" cy="220" r="1.5"/><circle cx="600" cy="220" r="1.5"/><circle cx="660" cy="220" r="1.5"/><circle cx="720" cy="220" r="1.5"/><circle cx="780" cy="220" r="1.5"/><circle cx="840" cy="220" r="1.5"/><circle cx="900" cy="220" r="1.5"/><circle cx="960" cy="220" r="1.5"/><circle cx="1020" cy="220" r="1.5"/><circle cx="1080" cy="220" r="1.5"/><circle cx="1140" cy="220" r="1.5"/>
    <circle cx="60" cy="280" r="1.5"/><circle cx="120" cy="280" r="1.5"/><circle cx="180" cy="280" r="1.5"/><circle cx="240" cy="280" r="1.5"/><circle cx="300" cy="280" r="1.5"/><circle cx="360" cy="280" r="1.5"/><circle cx="420" cy="280" r="1.5"/><circle cx="480" cy="280" r="1.5"/><circle cx="540" cy="280" r="1.5"/><circle cx="600" cy="280" r="1.5"/><circle cx="660" cy="280" r="1.5"/><circle cx="720" cy="280" r="1.5"/><circle cx="780" cy="280" r="1.5"/><circle cx="840" cy="280" r="1.5"/><circle cx="900" cy="280" r="1.5"/><circle cx="960" cy="280" r="1.5"/><circle cx="1020" cy="280" r="1.5"/><circle cx="1080" cy="280" r="1.5"/><circle cx="1140" cy="280" r="1.5"/>
    <circle cx="60" cy="340" r="1.5"/><circle cx="120" cy="340" r="1.5"/><circle cx="180" cy="340" r="1.5"/><circle cx="240" cy="340" r="1.5"/><circle cx="300" cy="340" r="1.5"/><circle cx="360" cy="340" r="1.5"/><circle cx="420" cy="340" r="1.5"/><circle cx="480" cy="340" r="1.5"/><circle cx="540" cy="340" r="1.5"/><circle cx="600" cy="340" r="1.5"/><circle cx="660" cy="340" r="1.5"/><circle cx="720" cy="340" r="1.5"/><circle cx="780" cy="340" r="1.5"/><circle cx="840" cy="340" r="1.5"/><circle cx="900" cy="340" r="1.5"/><circle cx="960" cy="340" r="1.5"/><circle cx="1020" cy="340" r="1.5"/><circle cx="1080" cy="340" r="1.5"/><circle cx="1140" cy="340" r="1.5"/>
    <circle cx="60" cy="400" r="1.5"/><circle cx="120" cy="400" r="1.5"/><circle cx="180" cy="400" r="1.5"/><circle cx="240" cy="400" r="1.5"/><circle cx="300" cy="400" r="1.5"/><circle cx="360" cy="400" r="1.5"/><circle cx="420" cy="400" r="1.5"/><circle cx="480" cy="400" r="1.5"/><circle cx="540" cy="400" r="1.5"/><circle cx="600" cy="400" r="1.5"/><circle cx="660" cy="400" r="1.5"/><circle cx="720" cy="400" r="1.5"/><circle cx="780" cy="400" r="1.5"/><circle cx="840" cy="400" r="1.5"/><circle cx="900" cy="400" r="1.5"/><circle cx="960" cy="400" r="1.5"/><circle cx="1020" cy="400" r="1.5"/><circle cx="1080" cy="400" r="1.5"/><circle cx="1140" cy="400" r="1.5"/>
  </g>

  <!-- Decorative ambient glow blobs -->
  <circle cx="150" cy="120" r="140" fill="#4285F4" opacity="0.04"/>
  <circle cx="1050" cy="320" r="160" fill="#34A853" opacity="0.04"/>
  <circle cx="600" cy="380" r="120" fill="#FBBC05" opacity="0.03"/>

  <!-- Decorative chart bars (right side) -->
  <g opacity="0.1" transform="translate(1020, 50)">
    <rect x="0" y="60" width="18" height="70" rx="4" fill="#4285F4"/>
    <rect x="28" y="40" width="18" height="90" rx="4" fill="#34A853"/>
    <rect x="56" y="70" width="18" height="60" rx="4" fill="#FBBC05"/>
    <rect x="84" y="20" width="18" height="110" rx="4" fill="#EA4335"/>
    <rect x="112" y="50" width="18" height="80" rx="4" fill="#4285F4"/>
  </g>

  <!-- Decorative node graph (left side) -->
  <g opacity="0.08" transform="translate(30, 50)">
    <circle cx="20" cy="30" r="6" fill="#4285F4"/>
    <circle cx="60" cy="10" r="5" fill="#34A853"/>
    <circle cx="80" cy="50" r="8" fill="#FBBC05"/>
    <circle cx="40" cy="70" r="5" fill="#EA4335"/>
    <circle cx="100" cy="30" r="6" fill="#4285F4"/>
    <line x1="20" y1="30" x2="60" y2="10" stroke="white" stroke-width="1"/>
    <line x1="60" y1="10" x2="80" y2="50" stroke="white" stroke-width="1"/>
    <line x1="80" y1="50" x2="40" y2="70" stroke="white" stroke-width="1"/>
    <line x1="20" y1="30" x2="40" y2="70" stroke="white" stroke-width="1"/>
    <line x1="60" y1="10" x2="100" y2="30" stroke="white" stroke-width="1"/>
    <line x1="100" y1="30" x2="80" y2="50" stroke="white" stroke-width="1"/>
  </g>

  <!-- MAIN TITLE -->
  <text x="600" y="85" text-anchor="middle" fill="white" font-size="54" font-family="'Google Sans', 'Segoe UI', Arial, sans-serif" font-weight="700" filter="url(#shadow)">pMax Performance Pack</text>

  <!-- Subtitle -->
  <text x="600" y="125" text-anchor="middle" fill="#94A8CC" font-size="20" font-family="'Google Sans', 'Segoe UI', Arial, sans-serif" font-weight="400">Google Performance Max Best Practices Dashboard</text>

  <!-- PIPELINE DIAGRAM — 4 steps centered, clock separate -->
  <!-- Pipeline center: x=600, y=200. Steps at -225, -75, 75, 225 (150px spacing) -->
  <g transform="translate(600, 200)">
    <!-- Pipeline container pill (covers 4 main steps) -->
    <rect x="-268" y="-36" width="536" height="72" rx="36" fill="url(#pipelineBg)" stroke="rgba(255,255,255,0.08)" stroke-width="1"/>

    <!-- Step 1: Google Ads API (center at -225) -->
    <g transform="translate(-225, 0)">
      <rect x="-26" y="-24" width="52" height="48" rx="12" fill="#4285F4" filter="url(#iconGlow)" style="flood-color:#4285F4"/>
      <text x="0" y="1" text-anchor="middle" dominant-baseline="central" fill="white" font-size="22" font-family="'Google Sans', Arial, sans-serif" font-weight="700">G</text>
      <text x="0" y="48" text-anchor="middle" fill="#6B8CC7" font-size="10" font-family="Arial, sans-serif" font-weight="500">Ads API</text>
    </g>

    <!-- Arrow 1→2 -->
    <line x1="-199" y1="0" x2="-101" y2="0" stroke="rgba(255,255,255,0.35)" stroke-width="2" marker-end="url(#arrowHead)"/>

    <!-- Step 2: Cloud Functions / GAARF (center at -75) -->
    <g transform="translate(-75, 0)">
      <rect x="-26" y="-24" width="52" height="48" rx="12" fill="#34A853" filter="url(#iconGlow)" style="flood-color:#34A853"/>
      <text x="0" y="0" text-anchor="middle" dominant-baseline="central" fill="white" font-size="18" font-family="'Google Sans', Arial, sans-serif" font-weight="700">fn</text>
      <text x="0" y="48" text-anchor="middle" fill="#5DA06E" font-size="10" font-family="Arial, sans-serif" font-weight="500">GAARF</text>
    </g>

    <!-- Arrow 2→3 -->
    <line x1="-49" y1="0" x2="49" y2="0" stroke="rgba(255,255,255,0.35)" stroke-width="2" marker-end="url(#arrowHead)"/>

    <!-- Step 3: BigQuery (center at 75) -->
    <g transform="translate(75, 0)">
      <rect x="-26" y="-24" width="52" height="48" rx="12" fill="#F9AB00" filter="url(#iconGlow)" style="flood-color:#F9AB00"/>
      <text x="0" y="1" text-anchor="middle" dominant-baseline="central" fill="white" font-size="16" font-family="'Google Sans', Arial, sans-serif" font-weight="700">BQ</text>
      <text x="0" y="48" text-anchor="middle" fill="#C49520" font-size="10" font-family="Arial, sans-serif" font-weight="500">BigQuery</text>
    </g>

    <!-- Arrow 3→4 -->
    <line x1="101" y1="0" x2="199" y2="0" stroke="rgba(255,255,255,0.35)" stroke-width="2" marker-end="url(#arrowHead)"/>

    <!-- Step 4: Looker Studio (center at 225) -->
    <g transform="translate(225, 0)">
      <rect x="-26" y="-24" width="52" height="48" rx="12" fill="#EA4335" filter="url(#iconGlow)" style="flood-color:#EA4335"/>
      <text x="0" y="1" text-anchor="middle" dominant-baseline="central" fill="white" font-size="16" font-family="'Google Sans', Arial, sans-serif" font-weight="700">LS</text>
      <text x="0" y="48" text-anchor="middle" fill="#C4564B" font-size="10" font-family="Arial, sans-serif" font-weight="500">Dashboard</text>
    </g>

    <!-- Scheduler clock — separate, to the right with a subtle connector -->
    <line x1="258" y1="-12" x2="300" y2="-12" stroke="rgba(121,134,203,0.3)" stroke-width="1" stroke-dasharray="3,3"/>
    <g transform="translate(330, -12)">
      <circle cx="0" cy="0" r="20" fill="rgba(92, 107, 192, 0.2)" stroke="rgba(121,134,203,0.4)" stroke-width="1"/>
      <text x="0" y="1" text-anchor="middle" dominant-baseline="central" fill="#9FA8DA" font-size="16">&#9201;</text>
      <text x="0" y="32" text-anchor="middle" fill="#7986CB" font-size="10" font-family="Arial, sans-serif" font-weight="500">Daily 4 AM</text>
    </g>
  </g>

  <!-- FEATURE PILLS — evenly spaced, centered -->
  <!-- Total width: 3 pills. Center at 600. Pills at 290, 500, 710 -->
  <!-- Per-Asset Metrics -->
  <rect x="220" y="278" width="210" height="36" rx="18" fill="rgba(66, 133, 244, 0.2)" stroke="rgba(66, 133, 244, 0.5)" stroke-width="1"/>
  <circle cx="241" cy="296" r="5" fill="#4285F4"/>
  <text x="257" y="301" fill="#93C5FD" font-size="14" font-family="'Google Sans', 'Segoe UI', Arial, sans-serif" font-weight="500">Per-Asset Metrics</text>

  <!-- API v23+ Ready -->
  <rect x="460" y="278" width="175" height="36" rx="18" fill="rgba(52, 168, 83, 0.2)" stroke="rgba(52, 168, 83, 0.5)" stroke-width="1"/>
  <circle cx="481" cy="296" r="5" fill="#34A853"/>
  <text x="497" y="301" fill="#86EFAC" font-size="14" font-family="'Google Sans', 'Segoe UI', Arial, sans-serif" font-weight="500">API v23+ Ready</text>

  <!-- Automated Pipeline -->
  <rect x="665" y="278" width="210" height="36" rx="18" fill="rgba(251, 188, 5, 0.2)" stroke="rgba(251, 188, 5, 0.5)" stroke-width="1"/>
  <circle cx="686" cy="296" r="5" fill="#FBBC05"/>
  <text x="702" y="301" fill="#FDE68A" font-size="14" font-family="'Google Sans', 'Segoe UI', Arial, sans-serif" font-weight="500">Automated Pipeline</text>

  <!-- TECH STACK -->
  <text x="600" y="358" text-anchor="middle" fill="#5E6F8E" font-size="13" font-family="'SF Mono', 'Fira Code', 'Consolas', monospace" font-weight="400">Google Ads API  ·  GAARF  ·  Cloud Functions  ·  Cloud Workflows  ·  BigQuery  ·  Looker Studio</text>

  <!-- Bottom tagline -->
  <text x="600" y="390" text-anchor="middle" fill="#3D4E6B" font-size="12" font-family="'Google Sans', 'Segoe UI', Arial, sans-serif" font-weight="400">Fully automated daily extraction, transformation &amp; visualization of pMax campaign performance</text>

  <!-- Google-colored accent bar -->
  <rect x="0" y="428" width="1200" height="12" fill="url(#accent)"/>
</svg>